<svg class="site-logo" viewBox="0 0 708 220" version="1.1" xmlns="http://www.w3.org/2000/svg"><g class="site-logo__text"><path d="M288.379,97.004c1.809,0 3.288,-1.479 3.288,-3.288l0,-21.618l13.646,0l0,21.618c0,1.809 1.479,3.288 3.288,3.288l5.754,0c1.808,0 3.288,-1.479 3.288,-3.288l0,-50.553c0,-1.808 -1.48,-3.288 -3.288,-3.288l-5.754,0c-1.809,0 -3.288,1.48 -3.288,3.288l0,18.413l-13.646,0l0,-18.413c0,-1.808 -1.479,-3.288 -3.288,-3.288l-5.754,0c-1.808,0 -3.288,1.48 -3.288,3.288l0,50.553c0,1.809 1.48,3.288 3.288,3.288l5.754,0Z" /><path d="M359.647,97.004c1.808,0 3.288,-1.479 3.288,-3.288l0,-3.945c0,-1.809 -1.48,-3.288 -3.288,-3.288l-16.358,0l0,-14.139l11.261,0c1.809,0 3.288,-1.479 3.288,-3.288l0,-3.534c0,-1.809 -1.479,-3.288 -3.288,-3.288l-11.261,0l0,-11.919l14.96,0c1.809,0 3.288,-1.48 3.288,-3.288l0,-3.864c0,-1.808 -1.479,-3.288 -3.288,-3.288l-24.002,0c-1.808,0 -3.288,1.48 -3.288,3.288l0,50.553c0,1.809 1.48,3.288 3.288,3.288l25.4,0Z" /><path d="M391.294,97.004c1.808,0 3.288,-1.479 3.288,-3.288l0,-43.319l9.042,0c1.808,0 3.288,-1.48 3.288,-3.288l0,-3.946c0,-1.808 -1.48,-3.288 -3.288,-3.288l-30.25,0c-1.808,0 -3.288,1.48 -3.288,3.288l0,3.946c0,1.808 1.48,3.288 3.288,3.288l9.042,0l0,43.319c0,1.809 1.48,3.288 3.288,3.288l5.59,0Z" /><path d="M296.435,168.905c1.891,0 3.617,-1.397 3.946,-3.206l4.027,-20.796c0.905,-4.604 1.727,-12.166 1.891,-15.618l0.164,0c0.247,3.699 0.822,9.864 1.891,15.7l3.863,20.385c0.411,2.22 2.138,3.535 4.028,3.535l6.083,0c1.891,0 3.617,-1.397 3.946,-3.206l10.028,-50.717c0.329,-1.644 -0.904,-3.206 -2.63,-3.206l-5.919,0c-1.89,0 -3.534,1.397 -3.863,3.206l-2.713,15.947c-0.904,5.096 -1.726,16.193 -2.219,22.769l-0.082,0c-0.576,-6.247 -1.644,-14.96 -2.877,-21.29l-3.371,-17.426c-0.328,-1.726 -2.055,-3.206 -3.945,-3.206l-3.946,0c-1.89,0 -3.617,1.48 -3.945,3.206l-3.371,17.508c-1.89,9.782 -2.63,16.769 -2.959,21.208l-0.082,0c-0.329,-4.685 -0.74,-13.645 -2.384,-22.523l-2.959,-16.193c-0.329,-1.809 -1.973,-3.206 -3.863,-3.206l-6.248,0c-1.726,0 -2.959,1.562 -2.63,3.206l9.782,50.471c0.329,1.808 1.973,3.452 4.028,3.452l6.329,0Z" /><path d="M375.265,168.905c1.808,0 3.288,-1.48 3.288,-3.288l0,-3.946c0,-1.808 -1.48,-3.288 -3.288,-3.288l-16.358,0l0,-14.138l11.261,0c1.809,0 3.288,-1.48 3.288,-3.288l0,-3.535c0,-1.808 -1.479,-3.288 -3.288,-3.288l-11.261,0l0,-11.919l14.96,0c1.809,0 3.288,-1.479 3.288,-3.288l0,-3.863c0,-1.808 -1.479,-3.288 -3.288,-3.288l-24.002,0c-1.808,0 -3.288,1.48 -3.288,3.288l0,50.553c0,1.808 1.48,3.288 3.288,3.288l25.4,0Z" /><path d="M409.296,168.905c12.165,0 17.919,-5.179 17.919,-16.769c0,-8.22 -4.192,-12.412 -9.535,-13.645c5.754,-2.302 7.398,-5.836 7.398,-12.083c0,-10.111 -5.836,-14.632 -14.96,-14.632l-18.167,0c-1.808,0 -3.288,1.48 -3.288,3.288l0,50.553c0,1.808 1.48,3.288 3.288,3.288l17.345,0Zm-8.549,-24.578l6.411,0c5.261,0 6.823,2.631 6.823,7.152c0,5.096 -2.055,7.398 -6.823,7.398l-6.411,0l0,-14.55Zm0,-22.44l5.918,0c4.192,0 6.001,1.972 6.001,6.165c0,4.274 -1.48,6.576 -5.836,6.576l-6.083,0l0,-12.741Z" /><path d="M464.205,168.905c1.809,0 3.288,-1.48 3.288,-3.288l0,-3.946c0,-1.808 -1.479,-3.288 -3.288,-3.288l-14.22,0l0,-43.319c0,-1.808 -1.48,-3.288 -3.288,-3.288l-5.59,0c-1.808,0 -3.288,1.48 -3.288,3.288l0,50.553c0,1.808 1.48,3.288 3.288,3.288l23.098,0Z" /><path d="M520.348,140.299c0,-20.714 -7.563,-29.592 -22.523,-29.592c-14.96,0 -22.687,8.96 -22.687,29.757c0,20.796 7.644,29.51 22.687,29.51c15.125,0 22.523,-8.714 22.523,-29.675Zm-31.894,-0.082c0,-14.796 2.22,-19.481 9.289,-19.481c7.069,0 9.288,4.685 9.288,19.481c0,14.961 -2.219,19.81 -9.288,19.81c-7.069,0 -9.289,-4.849 -9.289,-19.81Z" /><path d="M540.816,168.905c1.808,0 3.288,-1.48 3.288,-3.288l0,-26.633l12.741,26.962c0.822,1.726 2.712,2.959 4.685,2.959l7.316,0c1.479,0 2.466,-1.562 1.726,-2.877l-14.714,-28.195l13.152,-23.18c0.74,-1.315 -0.164,-2.877 -1.644,-2.877l-6.576,0c-1.973,0 -3.945,1.151 -4.85,2.877l-11.836,22.687l0,-22.276c0,-1.808 -1.48,-3.288 -3.288,-3.288l-5.754,0c-1.809,0 -3.288,1.48 -3.288,3.288l0,50.553c0,1.808 1.479,3.288 3.288,3.288l5.754,0Z" /><path d="M585.121,168.905c1.891,0 3.617,-1.315 4.028,-3.206l2.055,-8.384l13.399,0l1.89,8.384c0.411,1.891 2.137,3.206 4.028,3.206l6.494,0c1.644,0 2.877,-1.562 2.466,-3.206l-13.81,-50.717c-0.493,-1.891 -2.219,-3.206 -4.11,-3.206l-6.165,0c-1.89,0 -3.699,1.315 -4.192,3.124l-14.467,50.881c-0.493,1.562 0.74,3.124 2.384,3.124l6,0Zm12.988,-42.415l0.082,0c0.329,2.877 0.822,6.822 2.055,11.919l2.219,9.617l-8.959,0l2.384,-9.617c1.315,-5.097 1.808,-8.796 2.219,-11.919Z" /><path d="M634.277,168.905c1.89,0 3.617,-1.315 4.028,-3.206l2.055,-8.384l13.398,0l1.891,8.384c0.411,1.891 2.137,3.206 4.028,3.206l6.493,0c1.644,0 2.877,-1.562 2.466,-3.206l-13.809,-50.717c-0.493,-1.891 -2.22,-3.206 -4.11,-3.206l-6.165,0c-1.891,0 -3.699,1.315 -4.192,3.124l-14.468,50.881c-0.493,1.562 0.74,3.124 2.384,3.124l6.001,0Zm12.987,-42.415l0.083,0c0.328,2.877 0.822,6.822 2.055,11.919l2.219,9.617l-8.96,0l2.384,-9.617c1.315,-5.097 1.808,-8.796 2.219,-11.919Z" /><path d="M704.64,168.905c1.808,0 3.288,-1.48 3.288,-3.288l0,-3.946c0,-1.808 -1.48,-3.288 -3.288,-3.288l-14.221,0l0,-43.319c0,-1.808 -1.479,-3.288 -3.288,-3.288l-5.589,0c-1.809,0 -3.288,1.48 -3.288,3.288l0,50.553c0,1.808 1.479,3.288 3.288,3.288l23.098,0Z" /></g><g class="site-logo__symbol"><path d="M4.848,53.734l0,89.119l53.513,-4.532l0.133,-81.255l-53.646,-3.332Z" fill="none" stroke="#000" stroke-width="8.33px"/><path d="M40.496,28.531l0,149.97l71.513,-12.441l-0.325,-129.657l-71.188,-7.872Z" fill="none" stroke="#000" stroke-width="8.33px" stroke-miterlimit="4"/><path d="M76.252,214.148l0,-209.23l160.062,26.446l-0.206,144.461l-159.856,38.323Z" fill="none" stroke="#000" stroke-width="8.33px" stroke-miterlimit="12"/></g></svg>
